<?xml-stylesheet type="text/css" href="svg.css"?>
<svg viewBox="0 0 158.92256 148.30779" xmlns="http://www.w3.org/2000/svg" height="50px" width="50px">
                                    <g transform="translate(-50.256 -31.998)">
                                    <g stroke-width="0" transform="matrix(29.34 0 0 29.34 -1424.2 -5109.9)">
                                    <path d="m52.41 177.99c-0.65238 0.0831-1.5483 1.7316-1.0615 2.2206 0.38438 0.38614 1.28-0.51917 1.5488-0.68121 0.72469-0.4368 1.4331 0.66675 2.011 0.0862 1.4305-1.4805-2.0607-3.3893-3.2388-1.1617"/>
                                    <path d="m55.334 176.79c-0.03136 0.25587-0.25487 0.611-0.51251 0.74249-0.79077 0.40356-0.35082-1.2104-0.1488-1.4681 0.69466-0.88628 1.539-0.22141 0.54558 1.1981"/>
                                    <path d="m54.041 176.34c0.03597 0.25525-0.08805 0.65615-0.30288 0.84984-0.65937 0.59448-0.65213-1.0783-0.52371-1.3796 0.44161-1.0359 1.4292-0.61214 0.83708 1.0161"/>
                                    <path d="m51.822 176.63c0.009 0.25763 0.20065 0.63089 0.44586 0.78433 0.75258 0.47095 0.45496-1.1752 0.27618-1.4495-0.61476-0.94345-1.5138-0.3547-0.64792 1.146"/>
                                    <path d="m50.595 177.55c0.0314 0.25587 0.25487 0.611 0.51252 0.74249 0.79076 0.40356 0.35081-1.2104 0.14879-1.4681-0.69465-0.88628-1.539-0.22141-0.54558 1.1981"/>
                                    </g>
                                    </g>
                                    </svg>