<?xml version="1.0" standalone="no"?>
<!DOCTYPE svg PUBLIC "-//W3C//DTD SVG 20010904//EN"
 "http://www.w3.org/TR/2001/REC-SVG-20010904/DTD/svg10.dtd">
<svg version="1.0" xmlns="http://www.w3.org/2000/svg"
 width="1269.000000pt" height="1269.000000pt" viewBox="0 0 1269.000000 1269.000000"
 preserveAspectRatio="xMidYMid meet">
<metadata>
Created by potrace 1.11, written by Peter Selinger 2001-2013
</metadata>
<g transform="translate(0.000000,1269.000000) scale(0.100000,-0.100000)"
fill="#000000" stroke="none">
<path d="M4099 12663 c0 -16 -2 -39 -4 -53 -1 -14 -6 -61 -9 -105 -3 -44 -8
-96 -11 -115 -2 -19 -6 -62 -10 -95 -3 -33 -8 -73 -10 -90 -3 -16 -7 -48 -9
-70 -6 -53 -15 -118 -26 -185 -5 -30 -12 -73 -15 -95 -3 -23 -8 -52 -10 -65
-3 -14 -8 -41 -11 -60 -22 -147 -115 -554 -161 -710 -9 -30 -18 -59 -19 -65
-8 -36 -120 -347 -152 -426 -60 -144 -180 -384 -237 -474 -152 -241 -238 -351
-394 -505 -132 -131 -248 -225 -371 -300 -47 -28 -92 -55 -100 -60 -111 -69
-407 -181 -570 -216 -149 -31 -220 -43 -310 -50 -41 -3 -78 -9 -83 -13 -4 -4
-6 -169 -5 -366 l3 -360 763 1 762 0 0 -36 c0 -19 2 -1281 4 -2805 2 -1523 6
-2819 9 -2880 4 -60 9 -159 12 -220 3 -60 8 -128 10 -150 3 -22 8 -69 11 -105
9 -105 11 -123 19 -170 3 -25 8 -57 11 -72 27 -181 72 -339 149 -528 156 -383
367 -646 685 -852 197 -129 543 -266 760 -302 19 -3 46 -8 60 -11 77 -16 186
-31 305 -42 171 -15 667 -7 735 12 8 2 35 6 60 9 232 26 538 117 765 227 266
129 396 219 586 408 132 132 221 241 331 407 84 126 105 162 185 314 97 183
255 600 278 731 3 15 9 39 14 51 8 21 44 185 57 258 38 214 47 280 70 545 5
58 6 525 1 574 -2 22 11 32 93 80 136 80 172 104 290 195 128 98 280 241 373
351 l25 30 8 -30 c20 -86 146 -363 185 -409 5 -6 21 -27 35 -46 68 -96 205
-210 305 -253 104 -46 87 -40 214 -68 130 -29 385 -31 515 -6 367 73 686 270
795 490 66 134 56 247 -27 292 -33 17 -42 18 -95 7 -32 -6 -105 -30 -163 -52
-264 -101 -438 -90 -575 36 -65 60 -122 210 -139 364 -4 30 -9 80 -12 110 -4
30 -8 687 -9 1460 -1 773 -5 1423 -8 1445 -3 22 -9 72 -12 111 -3 39 -8 82
-10 95 -3 13 -7 41 -11 64 -28 193 -105 403 -202 549 -42 65 -164 196 -236
255 -95 78 -318 201 -463 257 -204 78 -423 133 -628 159 -27 3 -64 8 -81 11
-214 33 -696 38 -938 8 -146 -18 -287 -40 -351 -54 -23 -6 -508 -10 -1137 -10
l-1098 0 0 1850 0 1850 -385 0 -385 0 -1 -27z m3746 -4098 c44 -4 89 -9 100
-10 11 -2 40 -7 65 -11 25 -4 50 -8 55 -10 6 -1 21 -4 35 -7 157 -32 385 -123
475 -190 174 -129 280 -294 326 -512 7 -33 13 -62 14 -65 1 -3 5 -36 9 -75 4
-38 10 -81 13 -95 2 -14 6 -190 9 -391 l4 -366 -38 -7 c-20 -4 -62 -11 -92
-16 -30 -6 -64 -12 -75 -14 -11 -2 -65 -11 -120 -20 -55 -10 -111 -19 -124
-21 -13 -2 -47 -9 -75 -15 -28 -5 -123 -24 -211 -41 -360 -69 -862 -184 -897
-205 -4 -3 -16 -7 -25 -9 -39 -7 -256 -80 -393 -132 -269 -101 -332 -127 -513
-212 -80 -38 -315 -172 -366 -209 -158 -115 -175 -129 -279 -227 -202 -191
-324 -386 -411 -657 -13 -40 -16 -52 -31 -138 -100 -578 123 -1084 606 -1373
88 -53 272 -137 299 -137 7 0 16 -4 19 -9 3 -5 18 -11 33 -14 16 -2 73 -16
128 -30 55 -14 123 -29 150 -33 28 -3 52 -8 55 -9 18 -11 204 -20 390 -20 216
0 313 6 457 30 19 3 21 -1 18 -28 -2 -18 -6 -86 -9 -152 -4 -66 -8 -131 -10
-145 -2 -14 -7 -59 -10 -100 -4 -41 -8 -86 -10 -100 -3 -14 -7 -47 -11 -75 -3
-27 -11 -79 -16 -115 -6 -36 -13 -78 -16 -95 -10 -67 -73 -316 -102 -404 -84
-257 -207 -470 -360 -622 -130 -128 -256 -206 -423 -262 -163 -55 -290 -72
-513 -71 -142 0 -186 4 -265 24 -268 64 -468 193 -603 386 -61 88 -125 259
-152 404 -3 14 -7 36 -10 50 -3 14 -8 41 -10 60 -3 19 -8 51 -11 70 -11 65
-12 75 -18 138 -6 64 -13 133 -23 237 -3 33 -8 1322 -10 2865 l-4 2805 441 0
c242 0 440 0 440 -1 0 -1 -23 -49 -50 -107 -70 -148 -102 -286 -103 -442 -2
-178 17 -273 79 -398 41 -82 43 -85 126 -168 123 -124 277 -179 483 -174 196
5 328 58 450 180 120 120 168 249 161 435 -6 163 -56 294 -174 458 -68 96 -79
119 -76 164 14 207 394 397 869 434 44 4 81 7 82 8 4 3 178 -3 248 -9z m1100
-2737 c-2 -277 -6 -514 -8 -528 -3 -14 -8 -59 -12 -100 -3 -41 -11 -95 -17
-120 -5 -25 -11 -52 -13 -60 -21 -103 -61 -195 -143 -335 -178 -301 -515 -570
-868 -693 -99 -35 -163 -53 -229 -66 -16 -3 -41 -9 -55 -12 -56 -14 -335 -13
-405 1 -137 28 -236 68 -342 139 -173 115 -290 271 -354 475 -28 90 -34 143
-34 301 0 139 8 219 25 264 5 14 8 26 6 26 -7 0 32 107 64 177 57 125 172 270
299 377 98 83 288 194 436 256 214 89 539 185 805 239 30 6 64 13 75 16 57 12
476 94 510 99 59 9 102 16 175 31 36 7 70 13 77 14 10 1 11 -112 8 -501z"/>
</g>
</svg>
